<svg width="61" height="60" viewBox="0 0 61 60" fill="none" xmlns="http://www.w3.org/2000/svg">
<rect x="0.25" width="60" height="60" rx="30" fill="#2B6282"/>
<mask id="mask0_275_180" style="mask-type:alpha" maskUnits="userSpaceOnUse" x="0" y="0" width="61" height="60">
<rect x="0.25" width="60" height="60" rx="30" fill="#AEA2FC"/>
</mask>
<g mask="url(#mask0_275_180)">
<path d="M41.3107 31.0607C41.8964 30.4749 41.8964 29.5251 41.3107 28.9394L31.7647 19.3934C31.1789 18.8076 30.2292 18.8076 29.6434 19.3934C29.0576 19.9792 29.0576 20.9289 29.6434 21.5147L38.1287 30L29.6434 38.4853C29.0576 39.0711 29.0576 40.0208 29.6434 40.6066C30.2292 41.1924 31.1789 41.1924 31.7647 40.6066L41.3107 31.0607ZM-21 31.5L40.25 31.5L40.25 28.5L-21 28.5L-21 31.5Z" fill="white"/>
</g>
</svg>
