<svg width="151" height="64" viewBox="0 0 151 64" fill="none" xmlns="http://www.w3.org/2000/svg">
<rect width="151" height="64" rx="32" fill="#2B6282"/>
<path d="M126.993 32.9935C127.542 32.4448 127.542 31.5552 126.993 31.0065L118.052 22.0651C117.503 21.5165 116.614 21.5165 116.065 22.0651C115.516 22.6138 115.516 23.5034 116.065 24.0521L124.013 32L116.065 39.9479C115.516 40.4966 115.516 41.3862 116.065 41.9348C116.614 42.4835 117.503 42.4835 118.052 41.9348L126.993 32.9935ZM102 33.405L126 33.405L126 30.595L102 30.595L102 33.405Z" fill="white"/>
<path d="M45.1989 27H42.5568C42.4006 26.2401 42.1271 25.5724 41.7365 24.9972C41.353 24.4219 40.8842 23.9389 40.3303 23.5483C39.7834 23.1506 39.1761 22.8523 38.5085 22.6534C37.8409 22.4545 37.1449 22.3551 36.4205 22.3551C35.0994 22.3551 33.9027 22.6889 32.8303 23.3565C31.7649 24.0241 30.9162 25.0078 30.2841 26.3075C29.6591 27.6072 29.3466 29.2017 29.3466 31.0909C29.3466 32.9801 29.6591 34.5746 30.2841 35.8743C30.9162 37.174 31.7649 38.1577 32.8303 38.8253C33.9027 39.4929 35.0994 39.8267 36.4205 39.8267C37.1449 39.8267 37.8409 39.7273 38.5085 39.5284C39.1761 39.3295 39.7834 39.0348 40.3303 38.6442C40.8842 38.2464 41.353 37.7599 41.7365 37.1847C42.1271 36.6023 42.4006 35.9347 42.5568 35.1818H45.1989C45 36.2969 44.6378 37.2947 44.1122 38.1754C43.5866 39.0561 42.9332 39.8054 42.152 40.4233C41.3707 41.0341 40.4936 41.4993 39.5206 41.8189C38.5547 42.1385 37.5213 42.2983 36.4205 42.2983C34.5597 42.2983 32.9048 41.8438 31.456 40.9347C30.0071 40.0256 28.8672 38.733 28.0362 37.0568C27.2053 35.3807 26.7898 33.392 26.7898 31.0909C26.7898 28.7898 27.2053 26.8011 28.0362 25.125C28.8672 23.4489 30.0071 22.1562 31.456 21.2472C32.9048 20.3381 34.5597 19.8835 36.4205 19.8835C37.5213 19.8835 38.5547 20.0433 39.5206 20.3629C40.4936 20.6825 41.3707 21.1513 42.152 21.7692C42.9332 22.38 43.5866 23.1257 44.1122 24.0064C44.6378 24.88 45 25.8778 45.1989 27ZM49.8415 20.1818V42H47.3273V20.1818H49.8415ZM52.6464 42V25.6364H55.1607V42H52.6464ZM53.9249 22.9091C53.4348 22.9091 53.0122 22.7422 52.6571 22.4084C52.3091 22.0746 52.1351 21.6733 52.1351 21.2045C52.1351 20.7358 52.3091 20.3345 52.6571 20.0007C53.0122 19.6669 53.4348 19.5 53.9249 19.5C54.4149 19.5 54.8339 19.6669 55.182 20.0007C55.5371 20.3345 55.7146 20.7358 55.7146 21.2045C55.7146 21.6733 55.5371 22.0746 55.182 22.4084C54.8339 22.7422 54.4149 22.9091 53.9249 22.9091ZM64.6133 42.3409C63.0792 42.3409 61.7582 41.9787 60.6502 41.2543C59.5423 40.5298 58.69 39.532 58.0934 38.2607C57.4968 36.9893 57.1985 35.5369 57.1985 33.9034C57.1985 32.2415 57.5039 30.7749 58.1147 29.5036C58.7326 28.2251 59.592 27.2273 60.6929 26.5099C61.8008 25.7855 63.0934 25.4233 64.5707 25.4233C65.7213 25.4233 66.7582 25.6364 67.6815 26.0625C68.6048 26.4886 69.3612 27.0852 69.9507 27.8523C70.5402 28.6193 70.9059 29.5142 71.048 30.5369H68.5338C68.342 29.7912 67.9159 29.1307 67.2554 28.5554C66.602 27.973 65.7213 27.6818 64.6133 27.6818C63.6332 27.6818 62.7738 27.9375 62.0352 28.4489C61.3037 28.9531 60.7319 29.6669 60.32 30.5902C59.9152 31.5064 59.7127 32.5824 59.7127 33.8182C59.7127 35.0824 59.9116 36.1832 60.3093 37.1207C60.7142 38.0582 61.2824 38.7862 62.0139 39.3047C62.7525 39.8232 63.619 40.0824 64.6133 40.0824C65.2667 40.0824 65.8598 39.9688 66.3924 39.7415C66.9251 39.5142 67.3761 39.1875 67.7454 38.7614C68.1147 38.3352 68.3775 37.8239 68.5338 37.2273H71.048C70.9059 38.1932 70.5544 39.0632 69.9933 39.8374C69.4393 40.6044 68.7042 41.2152 67.788 41.6697C66.8789 42.1172 65.8207 42.3409 64.6133 42.3409ZM75.2672 36.0341L75.2245 32.9233H75.7359L82.895 25.6364H86.0058L78.3779 33.3494H78.1649L75.2672 36.0341ZM72.9234 42V20.1818H75.4376V42H72.9234ZM83.3211 42L76.9291 33.9034L78.7189 32.1562L86.5172 42H83.3211Z" fill="white"/>
</svg>
